FFmpeg version SVN-r25716, Copyright (c) 2000-2010 the FFmpeg developers  built on Nov 10 2010 12:23:18 with gcc 4.1.2 20080704 (Red Hat 4.1.2-48)  configuration: --enable-libmp3lame --enable-shared --disable-mmx --arch=x86_64  libavutil     50.33. 0 / 50.33. 0  libavcore      0.12. 1 /  0.12. 1  libavcodec    52.94. 4 / 52.94. 4  libavformat   52.84. 0 / 52.84. 0  libavdevice   52. 2. 2 / 52. 2. 2  libavfilter    1.59. 0 /  1.59. 0  libswscale     0.12. 0 /  0.12. 0[mov,mp4,m4a,3gp,3g2,mj2 @ 0xc63d4c0] max_analyze_duration reachedSeems stream 0 codec frame rate differs from container frame rate: 600.00 (600/1) -> 31.50 (63/2)Input #0, mov,mp4,m4a,3gp,3g2,mj2, from '/RAID10/data/converted_video_files/37408.mov':  Duration: 00:00:45.28, start: 0.000000, bitrate: 603 kb/s    Stream #0.0(eng): Video: smc, pal8, 320x240, 584 kb/s, 2.96 fps, 31.50 tbr, 600 tbn, 600 tbc    Stream #0.1(eng): Data: rtp  / 0x20707472, 18 kb/s[buffer @ 0xc645c50] w:320 h:240 pixfmt:pal8[ffsink @ 0xc6fcbe0] auto-inserting filter 'auto-inserted scaler 0' between the filter 'src' and the filter 'out'[scale @ 0xc6fcf00] w:320 h:240 fmt:pal8 -> w:320 h:240 fmt:yuv420p flags:0x4Output #0, flv, to '/RAID10/data/converted_video_files/37408.flv':  Metadata:    encoder         : Lavf52.84.0    Stream #0.0(eng): Video: flv, yuv420p, 320x240, q=2-31, 600 kb/s, 1k tbn, 24 tbcStream mapping:  Stream #0.0 -> #0.0Press [q] to stop encodingframe=   70 fps=  0 q=5.3 size=     745kB time=23.46 bitrate= 260.2kbits/s    frame=  129 fps=116 q=3.7 size=    1584kB time=43.29 bitrate= 299.8kbits/s    frame=  134 fps=111 q=3.6 Lsize=    1665kB time=44.96 bitrate= 303.3kbits/s    video:1662kB audio:0kB global headers:0kB muxing overhead 0.138280%